<?xml version="1.0" encoding="utf-8"?>
<!-- Generator: Adobe Illustrator 28.0.0, SVG Export Plug-In . SVG Version: 6.00 Build 0)  -->
<svg version="1.1" id="Layer_1" xmlns="http://www.w3.org/2000/svg" xmlns:xlink="http://www.w3.org/1999/xlink" x="0px" y="0px"
	 viewBox="0 0 25 26" style="enable-background:new 0 0 25 26;" xml:space="preserve">
<style type="text/css">
	.st0{fill:#67F859;}
</style>
<g>
	<path class="st0" d="M8.3,15.3c-0.6-0.9-0.9-1.9-1-2.3l-0.1-0.1L7,12.8c0,0.2,0,0.3,0,0.5c0,1,0.3,2,0.9,2.9
		c0.2,0.1,0.3,0.2,0.5,0.2C8.2,16,8.3,15.5,8.3,15.3z"/>
	<path class="st0" d="M9.9,15.4c0.2-0.3,0.9-1.3,1.3-1.9c-0.2-0.4-0.6-1.7-0.7-2.1c-0.7-0.2-1.6-0.2-1.9-0.2c-0.4,0.4-0.8,1.3-1,1.7
		c0.1,0.3,0.3,1.4,1,2.4C8.9,15.3,9.6,15.4,9.9,15.4z"/>
	<path class="st0" d="M10.1,17.9c-0.3-0.1-0.6-0.3-0.9-0.5c-0.1-0.1-0.3-0.2-0.4-0.3c-0.2-0.2-0.3-0.3-0.4-0.4c-0.1,0-0.2,0-0.3-0.1
		c0.2,0.2,0.4,0.5,0.6,0.6c0.1,0.1,0.2,0.2,0.4,0.3c0.3,0.2,0.6,0.4,0.9,0.5c0.1,0.1,0.3,0.1,0.4,0.2C10.3,18.2,10.2,18,10.1,17.9
		C10.1,17.9,10.1,17.9,10.1,17.9z"/>
	<path class="st0" d="M8.7,9.9c0,0-0.1,0.8-0.1,1c0,0,0,0,0,0c0.4,0,1.2,0.1,1.9,0.2c0.3-0.4,1.4-1.1,1.8-1.2c0-0.2,0-0.4,0-0.6
		c0-0.3,0-0.6,0-0.9c-0.3-0.1-1-0.1-1.3-0.1c-0.3,0.1-0.5,0.2-0.8,0.4C10,8.9,9.8,9,9.7,9.1C9.1,9.5,8.7,9.9,8.7,9.9z"/>
	<path class="st0" d="M12.5,9.4c0,0.2,0,0.3,0,0.5c0.1,0.1,0.4,0.2,0.7,0.4c0.3,0.2,0.5,0.3,0.5,0.3s-0.1,0-0.1-0.1
		c0.1,0.1,0.2,0.2,0.3,0.2c0.2,0.1,0.3,0.2,0.4,0.3c0,0,0.1,0,0.1,0.1c0.1,0,0.2,0,0.3-0.1c0.4-0.1,1.1-0.2,1.5-0.3
		c0-0.2,0-0.8,0-0.8c-0.1-0.1-0.2-0.2-0.4-0.4c-0.2-0.2-0.4-0.4-0.7-0.5c-0.1-0.1-0.3-0.2-0.4-0.3c-0.5-0.3-0.8-0.5-0.9-0.5
		c0,0-1.1,0.1-1.4,0.1C12.5,8.7,12.5,9.1,12.5,9.4z"/>
	<path class="st0" d="M11.1,17.3C11.1,17.3,11.2,17.3,11.1,17.3c0.1,0,0.1-0.1,0.1-0.1L11.1,17.3z"/>
	<path class="st0" d="M14.8,11.3c-0.2,0-0.3,0.1-0.4,0.1c-0.1,0.4-0.5,1.4-0.6,1.8c0.1,0.2,0.8,1.4,1.3,2.1c0,0,0,0,0,0c0,0,0,0,0,0
		c0.2,0,0.3,0,0.5,0c0.4-0.1,0.7-0.2,0.9-0.2c0.2-0.4,0.8-1.6,0.8-2.7c-0.2-0.4-0.5-0.9-0.9-1.3C15.9,11.1,15.3,11.2,14.8,11.3z"/>
	<path class="st0" d="M23.4,14.5c-0.1-1.2-0.6-2.3-1.4-3.2c0.3-0.8,0.3-1.6,0.3-2.4c-0.1-0.8-0.3-1.6-0.7-2.3
		c-0.6-1-1.5-1.9-2.6-2.4C18,3.9,17,3.7,16,3.8c-0.4,0-0.7-0.1-1-0.3c-0.4-0.4-0.9-0.7-1.5-1c-0.7-0.3-1.5-0.5-2.3-0.5
		c-1.2,0-2.4,0.4-3.3,1.1C7,3.7,6.4,4.5,6,5.4C5.8,5.8,5.5,6,5.2,6.1C4.6,6.3,4.1,6.6,3.6,6.9C2.9,7.4,2.4,8,2,8.7
		c-0.6,1-0.9,2.2-0.7,3.4c0.1,1,0.5,1.9,1.1,2.7c0.2,0.3,0.3,0.7,0.2,1c-0.1,0.6-0.2,1.2-0.1,1.8c0.1,0.8,0.3,1.6,0.7,2.3
		c0.6,1,1.5,1.9,2.6,2.4c0.9,0.4,1.9,0.6,2.9,0.5c0.4,0,0.7,0.1,1,0.3c0.4,0.4,0.9,0.7,1.5,1c0.7,0.3,1.5,0.5,2.3,0.5
		c1.2,0,2.4-0.4,3.3-1.1c0.8-0.6,1.4-1.4,1.9-2.3c0.2-0.3,0.4-0.6,0.8-0.7c0.6-0.2,1.1-0.5,1.6-0.8c0.6-0.5,1.2-1.1,1.6-1.8
		C23.3,16.9,23.5,15.7,23.4,14.5z M6.9,7.7c0-0.8,0.2-1.6,0.7-2.3c0.4-0.7,1-1.2,1.8-1.6c0.7-0.3,1.5-0.5,2.3-0.4
		c0.8,0.1,1.5,0.4,2.2,0.9c0,0-0.1,0.1-0.1,0.1l-4,2.3C8.6,7.3,7.7,8.1,6.9,9V7.7z M2.8,12.6c-0.3-1.1-0.1-2.2,0.4-3.2
		c0.5-0.9,1.3-1.5,2.2-1.9c0,0,0,0.1,0,0.2v4.6c0,0.3,0,0.6,0,0.9c0,0.9,0.1,1.7,0.4,2.5l-1-0.6C3.8,14.6,3.1,13.7,2.8,12.6z
		 M7,21.2c-1.1-0.3-2-1-2.6-2c-0.5-0.9-0.7-1.9-0.5-2.8c0,0,0.1,0.1,0.1,0.1l4,2.3c0.9,0.7,2,1.2,3.2,1.4l-1,0.6
		C9.2,21.3,8.1,21.5,7,21.2z M17.7,18.9c0,1.1-0.4,2.2-1.2,3c-0.8,0.8-1.9,1.2-3,1.2c-1,0-1.9-0.3-2.7-1c0,0,0.1-0.1,0.1-0.1l4-2.3
		c1.1-0.4,2.1-1.2,2.8-2.1V18.9z M17,16.7C17,16.7,16.9,16.7,17,16.7c-0.4,0.5-0.8,1-1.4,1.3c-1.7,1.2-3.9,1.3-5.7,0.5l-0.1,0
		c0,0,0,0,0,0c-0.3-0.2-0.6-0.4-0.9-0.6c-0.1-0.1-0.3-0.2-0.4-0.3c-0.3-0.3-0.6-0.6-0.9-1c-0.2-0.2-0.3-0.4-0.4-0.7c0,0,0,0,0,0l0,0
		c-0.3-0.6-0.5-1.3-0.6-2c-0.2-2,0.7-4.1,2.4-5.3c0.6-0.4,1.3-0.7,2-0.9c1.4-0.3,2.9-0.1,4.1,0.6c0.1,0.1,0.3,0.2,0.4,0.3
		c0.5,0.3,0.9,0.7,1.2,1.2c0,0,0,0,0,0c0,0,0,0.1,0.1,0.1C16.9,9.9,17,10,17,10C18.5,12.1,18.4,14.8,17,16.7z M16.6,7.8
		c-1.2-0.5-1.2-0.5-3.2-1.4l1-0.6c0.7-0.4,1.5-0.6,2.3-0.6c0.8,0,1.6,0.3,2.2,0.8c0.7,0.5,1.2,1.1,1.5,1.8c0.3,0.7,0.4,1.6,0.3,2.3
		c0,0-0.1-0.1-0.1-0.1L16.6,7.8z M21.9,15.4c-0.1,0.8-0.4,1.6-0.8,2.2c-0.5,0.6-1.1,1.1-1.9,1.4l0,0l0-3.4c0-0.3,0-2,0-2.3
		c0-0.5-0.2-1.7-0.5-2.5l1.1,0.6c0.7,0.4,1.3,1,1.6,1.7C21.9,13.8,22,14.6,21.9,15.4z"/>
	<path class="st0" d="M16.4,16.3C16.4,16.3,16.4,16.3,16.4,16.3c0,0.1,0,0.2,0,0.2c0,0,0.1,0,0.1-0.1c0,0,0,0,0,0
		c0.1-0.1,0.3-0.3,0.5-0.5c0.6-1,0.8-2.2,0.6-3.3l-0.2,0.1c0,1.2-0.7,2.4-0.8,2.6C16.6,15.5,16.5,16,16.4,16.3z"/>
	<path class="st0" d="M14.9,17.8c-0.1,0.1-0.2,0.3-0.3,0.4c0.3-0.1,0.6-0.3,0.8-0.5c0.4-0.3,0.8-0.6,1.1-1c-0.1,0-0.2,0.1-0.2,0.1
		C15.9,17.1,15.2,17.6,14.9,17.8z"/>
	<path class="st0" d="M13.8,17c0.7-0.8,0.9-1.4,1-1.6c-0.1-0.1-0.1-0.2-0.2-0.3c0,0-0.1-0.1-0.1-0.1c-0.4-0.6-0.8-1.3-0.9-1.5
		c-0.2,0.1-0.6,0.1-1,0.2c0,0-0.1,0-0.1,0c0,0,0,0,0,0c-0.2,0-0.5,0-0.7,0c-0.2,0-0.4,0-0.5,0c-0.4,0.6-1.1,1.6-1.3,1.9
		c0,0.1,0.1,0.2,0.2,0.3c0.1,0.2,0.3,0.5,0.5,0.7c0.1,0.2,0.3,0.4,0.3,0.5C11.4,17.1,13.1,17.2,13.8,17z"/>
	<path class="st0" d="M14.3,17.6c-0.2-0.1-0.4-0.3-0.5-0.4c-0.8,0.2-2.4,0.1-2.6,0c-0.3,0.3-0.7,0.5-0.8,0.6
		c0.2,0.2,0.4,0.4,0.5,0.6c0.7,0.2,1.5,0.3,2.2,0.2c0.2,0,0.5-0.1,0.7-0.1c0.2-0.1,0.6-0.3,0.8-0.7C14.5,17.8,14.4,17.7,14.3,17.6z"
		/>
	<path class="st0" d="M11.1,17l0.2,0.2C11.3,17.2,11.2,17.1,11.1,17C11.1,17,11.1,17,11.1,17z"/>
	<path class="st0" d="M14.6,8.6c0.3,0.1,0.6,0.3,0.9,0.5c0.1,0.1,0.3,0.2,0.4,0.3c0.2,0.2,0.3,0.3,0.4,0.4c0.1,0,0.2,0,0.3,0.1
		c-0.2-0.2-0.4-0.5-0.6-0.6c-0.1-0.1-0.2-0.2-0.4-0.3c-0.3-0.2-0.6-0.4-0.9-0.5c-0.1-0.1-0.3-0.1-0.4-0.2
		C14.4,8.3,14.5,8.5,14.6,8.6C14.6,8.6,14.6,8.6,14.6,8.6z"/>
	<path class="st0" d="M9.8,8.7c0.1-0.1,0.2-0.3,0.3-0.4C9.8,8.4,9.5,8.6,9.3,8.8c-0.4,0.3-0.8,0.6-1.1,1c0.1,0,0.2-0.1,0.2-0.1
		C8.8,9.4,9.5,8.9,9.8,8.7z"/>
	<path class="st0" d="M13.1,8.2c0.2-0.1,0.3-0.1,0.5-0.1C13.3,8,13,8,12.6,8c-0.5,0-1,0-1.5,0.1c0.1,0,0.2,0.1,0.2,0.1
		C11.9,8.1,12.7,8.2,13.1,8.2z"/>
</g>
</svg>
