<?xml version="1.0" encoding="utf-8"?>
<!-- Generator: Adobe Illustrator 28.0.0, SVG Export Plug-In . SVG Version: 6.00 Build 0)  -->
<svg version="1.1" id="Layer_1" xmlns="http://www.w3.org/2000/svg" xmlns:xlink="http://www.w3.org/1999/xlink" x="0px" y="0px"
	 viewBox="0 0 530.8 105" style="enable-background:new 0 0 530.8 105;" xml:space="preserve">
<style type="text/css">
	.st0{fill:#5C5A69;}
	.st1{clip-path:url(#SVGID_00000153704970337001502860000004312761373299040139_);}
</style>
<g>
	<path class="st0" d="M401.7,84.4c-10.3,0-18.2-2.6-23.6-7.8c-5.4-5.2-8.1-12.6-8.1-22.1c0-10,2.7-17.7,8.3-23.3
		c5.5-5.6,13.6-8.3,24.3-8.3c3.6,0,6.9,0.2,9.9,0.6c2.9,0.4,5.7,1.1,8.4,1.9v12.8c-2.7-1-5.4-1.7-8.3-2c-2.9-0.4-5.8-0.6-8.9-0.6
		c-6.4,0-11.1,1.5-14,4.6c-2.9,3.1-4.4,7.8-4.4,14.2c0,5.9,1.4,10.2,4.2,13c2.8,2.8,6.9,4.2,12.3,4.2c3.6,0,6.9-0.5,10-1.5V58.9
		h-4.2v-9.4h16.7v29.6c-2.1,1.4-5,2.6-8.8,3.7C411.8,83.8,407.2,84.4,401.7,84.4z"/>
	<path class="st0" d="M480,34.2c-1.5-3.2-3.8-5.8-6.9-7.6c-3.1-1.9-7-2.8-11.8-2.8h-29.4v59.7h14.9V65.9h14.1
		c4.4,0,8.2-0.9,11.4-2.6c3.2-1.8,5.6-4.2,7.4-7.4c1.7-3.2,2.6-6.8,2.6-10.8C482.3,41,481.5,37.4,480,34.2z M464.7,51.8
		c-1.6,1.7-3.9,2.6-7.1,2.6h-10.8V35.2h11.2c3.1,0,5.4,0.9,6.8,2.5c1.5,1.7,2.2,4.1,2.2,7.2C467.1,47.8,466.3,50.1,464.7,51.8z"/>
	<path class="st0" d="M496.6,83.5V35.2h-12.7V23.7h40.3v11.5h-12.7v48.2H496.6z"/>
</g>
<g>
	<path class="st0" d="M153.2,38.5c-3.3-2.4-7.8-3.5-13.6-3.5c-2.9,0-5.7,0.2-8.4,0.7c-2.6,0.5-4.9,1.1-6.7,1.8v8.2
		c4.1-1.3,8.3-2,12.5-2c3.5,0,5.8,0.4,7.1,1.2c1.3,0.8,1.9,2.2,1.9,4.1v0.9h-10.4c-5.2,0-9.1,1.1-11.7,3.3c-2.6,2.2-3.9,5.2-3.9,9
		c0,2.6,0.6,4.8,1.8,6.6c1.2,1.8,2.8,3.1,4.8,3.9c2,0.8,4.2,1.3,6.6,1.3c3.1,0,5.8-0.3,7.9-1c2.1-0.7,3.9-1.7,5.2-2.9l0.6,3.1h11.1
		V49.7C158.1,44.6,156.5,40.8,153.2,38.5z M146,62.4c-0.9,1-2.1,1.9-3.5,2.6c-1.5,0.7-3.2,1-5.2,1c-2,0-3.5-0.4-4.4-1.2
		c-0.9-0.8-1.4-1.9-1.4-3.2c0-3,1.9-4.5,5.6-4.5h9V62.4z"/>
	<path class="st0" d="M201.7,39.2c-3.1-2.9-7.3-4.3-12.6-4.3c-2.5,0-4.7,0.4-6.6,1.1c-1.9,0.7-3.6,1.7-5.1,3l-0.6-3.2h-11v46
		c1.3-0.1,2.6-0.1,3.9-0.1c3.1,0,6,0.1,8.7,0.3V71.4c2.8,1.6,6.1,2.4,10.1,2.4c5.6,0,9.9-1.7,13.1-5.1c3.2-3.4,4.8-8.4,4.8-15.1
		C206.4,46.9,204.8,42.1,201.7,39.2z M185.3,64.5c-1.5,0-2.8-0.2-3.8-0.6c-1-0.4-2-1-3-1.7V47c2-1.9,4.4-2.8,7.1-2.8
		c2.8,0,4.8,0.6,6.1,1.9c1.3,1.3,1.9,3.7,1.9,7.2C193.5,60.8,190.7,64.5,185.3,64.5z"/>
	<path class="st0" d="M232.3,34.9c-7.1,0-12.4,1.7-15.9,5c-3.4,3.4-5.2,8.2-5.2,14.4c0,6.3,1.7,11.1,5.1,14.4c3.4,3.3,8.7,5,15.9,5
		c7.2,0,12.6-1.7,16-5c3.4-3.3,5.1-8.1,5.1-14.4c0-6.2-1.7-11-5.2-14.4C244.8,36.6,239.4,34.9,232.3,34.9z M238.5,61.7
		c-1.3,1.5-3.4,2.2-6.3,2.2c-2.9,0-5-0.7-6.2-2.2c-1.3-1.5-1.9-3.9-1.9-7.3c0-3.4,0.6-5.8,1.9-7.3c1.3-1.5,3.3-2.2,6.2-2.2
		c2.9,0,5,0.7,6.3,2.2c1.3,1.5,1.9,3.9,1.9,7.3C240.4,57.8,239.8,60.2,238.5,61.7z"/>
	<path class="st0" d="M286.1,53.2c-1.6-1-3.9-2-6.8-2.9c-2.8-0.9-4.9-1.5-6.4-1.9c-1.5-0.4-2.2-1.1-2.2-2.1c0-0.9,0.7-1.5,2-1.7
		c1.3-0.2,3-0.4,4.9-0.4c1.5,0,3.2,0.2,5.1,0.5c1.9,0.3,3.6,0.8,5,1.5v-9.5c-1.5-0.5-3.4-0.9-5.7-1.3c-2.3-0.4-4.6-0.6-7-0.6
		c-6,0-10.4,1-13.2,3c-2.8,2-4.1,4.8-4.1,8.5c0,3.1,0.9,5.5,2.6,7.1c1.8,1.6,4.3,3,7.7,4.2c2.9,1,5.2,1.8,6.9,2.3
		c1.7,0.5,2.5,1.3,2.5,2.4c0,0.9-0.5,1.5-1.5,1.7c-1,0.2-2.7,0.3-4.9,0.3c-1.9,0-4-0.2-6.5-0.6c-2.4-0.4-4.5-1-6.4-1.8v9.7
		c1.6,0.6,3.7,1.2,6.4,1.6c2.7,0.4,5.5,0.6,8.5,0.6c5.7,0,10-1,13-3c2.9-2,4.4-4.9,4.4-8.6c0-2.2-0.3-3.9-1-5.3
		C288.9,55.5,287.8,54.2,286.1,53.2z"/>
	<path class="st0" d="M311.8,63.4c-0.9-0.7-1.3-2-1.3-3.7V45.3h8.5l0.6-9.6h-9V24.5l-12.7,3.4v7.8h-5v9.6h5v15.2
		c0,4.1,1.1,7.4,3.3,9.8c2.2,2.4,5.6,3.5,10.2,3.5c3.7,0,6.7-0.5,9.2-1.6v-8.6c-1.6,0.5-3.1,0.8-4.6,0.8
		C314,64.4,312.7,64.1,311.8,63.4z"/>
	<path class="st0" d="M356.9,38.5c-3.3-2.4-7.8-3.5-13.6-3.5c-2.9,0-5.7,0.2-8.4,0.7c-2.6,0.5-4.9,1.1-6.7,1.8v8.2
		c4.1-1.3,8.3-2,12.5-2c3.5,0,5.8,0.4,7.1,1.2c1.3,0.8,1.9,2.2,1.9,4.1v0.9h-10.4c-5.2,0-9.1,1.1-11.7,3.3c-2.6,2.2-3.9,5.2-3.9,9
		c0,2.6,0.6,4.8,1.8,6.6c1.2,1.8,2.8,3.1,4.8,3.9c2,0.8,4.2,1.3,6.6,1.3c3.1,0,5.8-0.3,7.9-1c2.1-0.7,3.9-1.7,5.2-2.9l0.6,3.1h11.1
		V49.7C361.8,44.6,360.2,40.8,356.9,38.5z M349.7,62.4c-0.9,1-2.1,1.9-3.5,2.6c-1.5,0.7-3.2,1-5.2,1c-2,0-3.5-0.4-4.4-1.2
		c-0.9-0.8-1.4-1.9-1.4-3.2c0-3,1.9-4.5,5.6-4.5h9V62.4z"/>
</g>
<g>
	<defs>
		<rect id="SVGID_1_" x="4.4" y="3.7" width="98.4" height="99.8"/>
	</defs>
	<clipPath id="SVGID_00000000220130082790106800000003431639375085950098_">
		<use xlink:href="#SVGID_1_"  style="overflow:visible;"/>
	</clipPath>
	<g id="Group_4" style="clip-path:url(#SVGID_00000000220130082790106800000003431639375085950098_);">
		<path id="Path_2" class="st0" d="M35.8,62.3c-2-3.1-3.4-6.5-4.2-10.1L31,51.9l-1-0.4c-0.1,0.7-0.1,1.4-0.1,2.1
			c0,4.5,1.3,9,3.8,12.8c0.6,0.4,1.3,0.7,2,0.9C35.5,65.7,35.5,64,35.8,62.3"/>
		<path id="Path_3" class="st0" d="M43,62.7c0.8-1.2,3.9-5.6,5.6-8.4c-0.7-1.7-2.7-7.5-3.3-9.3c-2.8-0.6-5.7-1-8.6-1
			c-1.9,2.3-3.3,4.8-4.3,7.6c0.8,3.8,2.3,7.4,4.4,10.6C38.9,62.5,41,62.7,43,62.7"/>
		<path id="Path_4" class="st0" d="M43.5,73.8c-1.4-0.5-2.6-1.2-3.8-2.1c-0.6-0.5-1.2-0.9-1.7-1.4c-0.9-0.8-1.5-1.5-1.9-1.9
			c-0.4-0.1-0.9-0.1-1.3-0.3c0.8,1,1.7,2,2.6,2.9c0.5,0.5,1.1,1,1.7,1.4c1.2,0.9,2.6,1.8,4,2.4c0.6,0.3,1.2,0.6,1.9,0.8
			C44.5,75,44,74.4,43.7,74L43.5,73.8"/>
		<path id="Path_5" class="st0" d="M37.6,38.4c-0.3,1.5-0.5,3-0.6,4.6H37c2.9,0.1,5.7,0.4,8.5,1c2.4-2.2,5-4.1,8-5.5
			c0-0.7,0.1-1.6,0.1-2.5c0-1.3,0-2.6,0-3.8c-1.9-0.5-3.9-0.6-5.9-0.3c-1.2,0.4-2.4,1-3.5,1.6c-0.8,0.5-1.6,1-2.4,1.5
			C40.3,36.1,38.9,37.2,37.6,38.4"/>
		<path id="Path_6" class="st0" d="M54.5,36.4c0,0.8,0,1.5-0.1,2.2c0.6,0.4,1.8,1.1,3,1.9c1.3,0.8,2.4,1.5,2.4,1.5l-0.6-0.3
			c0.5,0.3,1,0.7,1.4,1c0.7,0.5,1.3,0.9,1.7,1.2c0.2,0.1,0.3,0.2,0.4,0.3c0.3-0.1,0.8-0.2,1.4-0.3c2.2-0.5,4.5-0.9,6.7-1.2
			c0.1-1.2,0.1-2.5,0-3.7c-0.5-0.6-1.1-1.1-1.6-1.6c-0.9-0.8-1.9-1.6-2.9-2.4c-0.6-0.5-1.2-0.9-1.8-1.2c-1.2-0.8-2.5-1.5-3.8-2.1
			c0,0-4.8,0.3-6.2,0.5C54.6,33.2,54.6,34.8,54.5,36.4"/>
		<path id="Path_7" class="st0" d="M48.3,71.2l0.1,0c0.1-0.1,0.3-0.3,0.4-0.4L48.3,71.2z"/>
		<path id="Path_8" class="st0" d="M64.8,44.8c-0.7,0.2-1.4,0.3-1.9,0.4c-0.8,2.7-1.7,5.4-2.8,8c0.5,0.8,3.7,6,5.6,9.1l0,0h0
			c0.8,0,1.5,0,2.3-0.1c1.3-0.2,2.6-0.5,3.9-1c0.9-1.6,3.7-6.9,3.3-11.7c-0.9-2.2-2.2-4.2-3.9-5.9C69.1,43.9,66.9,44.3,64.8,44.8"/>
		<path id="Path_9" class="st0" d="M102.7,58.8c-0.6-5.3-2.8-10.3-6.4-14.2c2.3-6.8,1.5-14.2-2.1-20.4c-5-8.6-14.6-13.5-24.5-12.5
			c-1.6,0.2-3.3-0.4-4.5-1.5C60.7,6,54.6,3.7,48.4,3.7c-10,0-19,5.8-23,14.9c-0.7,1.5-1.9,2.6-3.5,3.1c-5.9,1.9-11,6-14.1,11.4
			c-5,8.6-4.4,19.4,1.4,27.4c1,1.3,1.3,3,1,4.6C8.8,71.3,9.9,77.7,13,83.1c5,8.6,14.6,13.5,24.5,12.5c1.6-0.2,3.3,0.4,4.5,1.5
			c4.6,4.2,10.6,6.5,16.9,6.5c10,0,19-5.8,23-14.9c0.7-1.5,1.9-2.6,3.5-3.1c6-1.9,11-6,14.1-11.4C102.1,69.4,103.2,64.1,102.7,58.8
			 M29.7,28.9c0-10.3,8.4-18.7,18.7-18.7c4.4,0,8.6,1.5,11.9,4.3c-0.2,0.1-0.4,0.2-0.6,0.3L42.1,25.1c-4.9,2-9.1,5.1-12.4,9.2
			L29.7,28.9z M11.6,50.6c-2.5-9.3,2.5-19,11.6-22.4c0,0.2,0,0.5,0,0.7v20.5c0,1.4,0,2.8,0,4.2c-0.1,3.8,0.5,7.5,1.8,11.1L20.3,62
			C16,59.5,12.9,55.4,11.6,50.6 M30,88.5C20.7,86,14.8,76.8,16.4,67.3c0.1,0.1,0.4,0.2,0.6,0.4l17.7,10.2c4.1,3.2,8.9,5.3,14.1,6.1
			l-4.6,2.7C39.9,89.1,34.8,89.8,30,88.5 M77.5,78.3c0,10.3-8.4,18.7-18.7,18.7c-4.4,0-8.6-1.5-12-4.3c0.2-0.1,0.4-0.2,0.6-0.3
			l17.7-10.2c4.8-2,9.1-5.1,12.4-9.2V78.3z M74.1,68.5c0,0.1-0.1,0.1-0.2,0.2c-7.2,9.7-20.3,13-31.2,7.8l-0.4-0.2l0,0
			c-1.5-0.7-2.9-1.6-4.2-2.6c-0.6-0.4-1.1-0.9-1.7-1.4c-1.4-1.3-2.7-2.7-3.8-4.3c-0.7-1-1.3-2-1.8-3l0-0.1h0
			C24.7,52.5,29.7,37.3,42.2,31c1.9-0.9,3.9-1.7,5.9-2.1c6.2-1.4,12.6-0.4,18.1,2.7c0.6,0.4,1.3,0.8,1.9,1.2
			c2.1,1.4,3.9,3.2,5.5,5.2c0,0,0,0,0.1,0.1c0.1,0.1,0.2,0.2,0.3,0.4c0.2,0.2,0.4,0.5,0.5,0.8C80.6,48,80.4,59.7,74.1,68.5
			 M72.4,29.3c-5.2-2.3-5.2-2.3-14-6l4.6-2.7c8.9-5.2,20.4-2.1,25.5,6.8c2.2,3.8,3,8.2,2.2,12.5c-0.1-0.1-0.4-0.2-0.6-0.4L72.4,29.3
			z M96.2,63c-0.3,3.5-1.6,6.9-3.8,9.7c-2.1,2.8-4.9,4.9-8.2,6.1l0-15.2c0-1.4,0.1-8.6,0.1-10.1c-0.1-3.8-0.8-7.5-2.1-11.1l4.7,2.7
			C93.2,48.8,96.8,55.8,96.2,63"/>
		<path id="Path_10" class="st0" d="M71.7,66.7c0,0.1,0,0.2-0.1,0.3c-0.1,0.3-0.1,0.5-0.1,0.7c0.2-0.1,0.4-0.2,0.6-0.4l0.2-0.2
			c0.8-0.6,1.5-1.4,2.1-2.2c2.4-4.5,3.4-9.6,2.7-14.7l-0.9,0.4c-0.3,4.1-1.6,8.1-3.8,11.5C72.3,63.7,72,65.2,71.7,66.7"/>
		<path id="Path_11" class="st0" d="M64.8,73.4c-0.4,0.6-0.9,1.2-1.4,1.8c3.3-1.5,6.2-3.7,8.5-6.5c-0.3,0.2-0.7,0.3-1,0.3
			C68.9,70.5,66.9,72,64.8,73.4"/>
		<path id="Path_12" class="st0" d="M60.2,69.9c1.9-2.1,3.4-4.5,4.5-7.2l-0.8-1.3l-0.3-0.6c-1.6-2.6-3.5-5.7-4.2-6.8
			c-1.4,0.3-2.8,0.6-4.2,0.7l-0.4,0h0c-1,0.1-2.1,0.2-3,0.2c-0.7,0-1.5,0-2.2-0.1c-1.8,2.8-4.7,7.1-5.6,8.3c0.2,0.4,0.5,0.9,0.9,1.5
			c0.6,1,1.4,2.2,2.2,3.3c0.6,0.8,1.1,1.6,1.5,2.1C49.7,70.2,57.2,70.9,60.2,69.9"/>
		<path id="Path_13" class="st0" d="M62.4,72.7c-0.8-0.6-1.8-1.3-2.3-1.7c-3.5,1-10.5,0.3-11.6,0.2c-1.1,1-2.4,1.9-3.7,2.5
			c0.7,0.9,1.5,1.8,2.3,2.6c3.1,0.9,6.4,1.1,9.7,0.7c1.1-0.1,2.2-0.4,3.2-0.7c1.4-0.7,2.6-1.7,3.5-2.9C63.2,73.3,62.8,73,62.4,72.7"
			/>
		<path id="Path_14" class="st0" d="M48.2,70l0.7,0.7l-0.5-0.7L48.2,70"/>
		<path id="Path_15" class="st0" d="M63.6,32.8c1.4,0.5,2.6,1.2,3.8,2.1c0.6,0.5,1.2,0.9,1.7,1.4c0.9,0.8,1.5,1.5,1.9,1.9
			c0.4,0.1,0.9,0.1,1.3,0.3c-0.8-1-1.7-2-2.6-2.9c-0.5-0.5-1.1-1-1.7-1.4c-1.2-0.9-2.6-1.8-4-2.4c-0.6-0.3-1.2-0.6-1.9-0.8
			c0.6,0.6,1.1,1.3,1.4,1.7L63.6,32.8"/>
		<path id="Path_16" class="st0" d="M42.3,33.2c0.4-0.6,0.9-1.2,1.4-1.8c-3.3,1.5-6.2,3.7-8.5,6.5c0.3-0.2,0.7-0.3,1-0.3
			C38.2,36.1,40.2,34.6,42.3,33.2"/>
		<path id="Path_17" class="st0" d="M57,31.1c0.7-0.3,1.4-0.5,2.2-0.5c-3.5-0.8-7.2-0.9-10.7-0.1c0.4,0.1,0.7,0.2,1,0.4
			C52,30.8,54.5,30.9,57,31.1"/>
	</g>
</g>
</svg>
